<?xml version="1.0" encoding="UTF-8"?>
<svg width="32px" height="31px" viewBox="0 0 32 31" version="1.1" xmlns="http://www.w3.org/2000/svg" xmlns:xlink="http://www.w3.org/1999/xlink">
    <!-- Generator: Sketch 52.6 (67491) - http://www.bohemiancoding.com/sketch -->
    <title>icon-twitter</title>
    <desc>Created with Sketch.</desc>
    <g id="Symbols" stroke="none" stroke-width="1" fill="none" fill-rule="evenodd">
        <g id="Footer-new" transform="translate(-1564.000000, -494.000000)" fill="#FFFFFF" fill-rule="nonzero">
            <g id="Footer" transform="translate(-4.000000, 0.000000)">
                <g id="Copyright" transform="translate(0.000000, 438.000000)">
                    <g id="Col.3" transform="translate(1341.000000, 56.000000)">
                        <g id="Social-Icons">
                            <g id="icon-twitter" transform="translate(227.912637, 0.000000)">
                                <path d="M15.1754457,0 C6.79427846,-5.11069803e-16 1.02639696e-15,6.76609672 0,15.1125 C-1.02639696e-15,23.4589033 6.79427846,30.225 15.1754457,30.225 C23.5566129,30.225 30.3508913,23.4589033 30.3508913,15.1125 C30.3508913,11.1044158 28.7520543,7.26049229 25.9061062,4.42634877 C23.0601581,1.59220525 19.2002241,2.45424374e-16 15.1754457,0 Z M22.1127923,11.78 L22.1127923,12.2339286 C22.1395807,14.8585023 21.1090483,17.3842935 19.2516468,19.2464747 C17.3942452,21.1086558 14.8649229,22.15188 12.2292969,22.1428571 C10.3365671,22.1456928 8.48336927,21.603574 6.89287642,20.5817857 C7.16684793,20.5986426 7.44160307,20.5986426 7.71557458,20.5817857 C9.28676965,20.5839446 10.8133546,20.0616013 12.0514162,19.0982143 C10.5591386,19.0698922 9.2500258,18.0999166 8.79397621,16.6846429 C9.00974329,16.7292045 9.22955335,16.7514654 9.44991122,16.7510714 C9.75132999,16.7410696 10.0502249,16.6927007 10.3393146,16.6071429 C8.74346668,16.2863796 7.58424815,14.9066064 7.54881144,13.2857143 C8.03417937,13.549904 8.57472094,13.6977468 9.12750249,13.7175 C8.12979228,13.0565831 7.54220183,11.932253 7.57104652,10.7392857 C7.57206818,10.1278174 7.73710981,9.52772303 8.04910085,9.00107143 C9.81879701,11.1680152 12.4296659,12.4841341 15.2310334,12.6214286 C15.1679202,12.364241 15.1380319,12.1000823 15.142093,11.8353571 C15.1537201,10.4283934 16.0184531,9.16809149 17.3304398,8.6459593 C18.6424265,8.12382712 20.1412009,8.44352242 21.123331,9.455 C21.9071337,9.30240509 22.6590758,9.01785229 23.3468395,8.61357143 C23.0836393,9.41798602 22.5392173,10.1015839 21.8126186,10.54 C22.5032379,10.4537867 23.1774491,10.2672826 23.8137763,9.98642857 C23.3577412,10.6797473 22.7818251,11.2870114 22.1127923,11.78 Z" id="Shape"></path>
                            </g>
                        </g>
                    </g>
                </g>
            </g>
        </g>
    </g>
</svg>