<svg width="32" height="31" viewBox="0 0 32 31" fill="none" xmlns="http://www.w3.org/2000/svg">
<path fill-rule="evenodd" clip-rule="evenodd" d="M0.912598 15.1125C0.912598 6.7661 7.70688 0 16.088 0C20.1128 0 23.9728 1.59221 26.8187 4.42635C29.6647 7.26049 31.2635 11.1044 31.2635 15.1125C31.2635 23.4589 24.4692 30.225 16.088 30.225C7.70688 30.225 0.912598 23.4589 0.912598 15.1125ZM20.5832 5.83317C21.7977 5.8368 22.9615 6.32088 23.8203 7.1797C24.6791 8.03852 25.1632 9.20228 25.1668 10.4168V19.5832C25.1632 20.7977 24.6791 21.9615 23.8203 22.8203C22.9615 23.6791 21.7977 24.1632 20.5832 24.1668H11.4168C10.2023 24.1632 9.03852 23.6791 8.1797 22.8203C7.32088 21.9615 6.8368 20.7977 6.83317 19.5832V10.4168C6.8368 9.20228 7.32088 8.03852 8.1797 7.1797C9.03852 6.32088 10.2023 5.8368 11.4168 5.83317H20.5832ZM20.5832 4H11.4168C7.8875 4 5 6.8875 5 10.4168V19.5832C5 23.1125 7.8875 26 11.4168 26H20.5832C24.1125 26 27 23.1125 27 19.5832V10.4168C27 6.8875 24.1125 4 20.5832 4ZM21.1943 10.1852C21.4204 10.3363 21.6862 10.4169 21.9582 10.4169C22.1388 10.4173 22.3178 10.382 22.4848 10.313C22.6518 10.2441 22.8036 10.1428 22.9313 10.0151C23.0591 9.8873 23.1603 9.73557 23.2293 9.56857C23.2983 9.40157 23.3336 9.2226 23.3332 9.04192C23.3332 8.76997 23.2525 8.50413 23.1014 8.27801C22.9504 8.0519 22.7356 7.87566 22.4844 7.77159C22.2331 7.66752 21.9566 7.64029 21.6899 7.69334C21.4232 7.7464 21.1782 7.87735 20.9859 8.06965C20.7936 8.26195 20.6626 8.50695 20.6096 8.77367C20.5565 9.0404 20.5838 9.31686 20.6878 9.56811C20.7919 9.81936 20.9681 10.0341 21.1943 10.1852ZM18.0372 11.9512C17.4342 11.5483 16.7252 11.3333 16 11.3333C15.0278 11.3343 14.0957 11.721 13.4083 12.4084C12.7209 13.0958 12.3342 14.0279 12.3332 15.0001C12.3332 15.7253 12.5482 16.4343 12.9511 17.0373C13.3541 17.6403 13.9267 18.1103 14.5968 18.3878C15.2668 18.6653 16.0041 18.7379 16.7154 18.5965C17.4267 18.455 18.08 18.1057 18.5928 17.5929C19.1057 17.0801 19.4549 16.4268 19.5964 15.7155C19.7379 15.0042 19.6652 14.2669 19.3877 13.5969C19.1102 12.9268 18.6402 12.3542 18.0372 11.9512ZM12.9444 10.427C13.8488 9.82266 14.9122 9.50009 16 9.50009C17.4587 9.50009 18.8576 10.0796 19.8891 11.111C20.9205 12.1425 21.5 13.5414 21.5 15.0001C21.5 16.0879 21.1774 17.1513 20.5731 18.0557C19.9687 18.9602 19.1098 19.6651 18.1048 20.0814C17.0998 20.4977 15.9939 20.6066 14.927 20.3944C13.8601 20.1822 12.8801 19.6584 12.1109 18.8892C11.3417 18.12 10.8179 17.14 10.6057 16.0731C10.3935 15.0062 10.5024 13.9003 10.9187 12.8953C11.3349 11.8903 12.0399 11.0314 12.9444 10.427Z" fill="white"/>
</svg>
