<svg width="241" height="55" viewBox="0 0 241 55" fill="none" xmlns="http://www.w3.org/2000/svg">
<path d="M35.3473 0H19.4912C8.72652 0 0 8.72652 0 19.4912V35.3473C0 46.112 8.72652 54.8385 19.4912 54.8385H35.3473C46.112 54.8385 54.8385 46.112 54.8385 35.3473V19.4912C54.8385 8.72652 46.112 0 35.3473 0Z" fill="#564DFC"/>
<path fill-rule="evenodd" clip-rule="evenodd" d="M44.2567 15.3358L40.6551 19.8019C38.0596 16.9577 34.4194 15.291 30.5705 15.1846C23.5051 15.1846 17.7775 20.9122 17.7775 27.9776C17.7775 35.043 23.5051 40.7706 30.5705 40.7706C34.3571 40.6547 37.9597 39.1107 40.6551 36.4486L44.2927 40.4969C40.5507 44.2141 35.5266 46.3562 30.2536 46.4828C19.6071 46.4828 11.3594 38.4367 11.3594 28.0064C11.3594 17.5761 19.7152 9.73169 30.4625 9.73169C35.6096 9.75885 40.549 11.7655 44.2567 15.3358Z" fill="white"/>
<path d="M30.7515 34.9792C34.6701 34.9792 37.8467 31.88 37.8467 28.0569C37.8467 24.2338 34.6701 21.1345 30.7515 21.1345C26.8329 21.1345 23.6562 24.2338 23.6562 28.0569C23.6562 31.88 26.8329 34.9792 30.7515 34.9792Z" fill="#6EE4D3"/>
<path fill-rule="evenodd" clip-rule="evenodd" d="M91.085 19.3121L88.5998 22.3879C86.8065 20.4209 84.288 19.2709 81.6271 19.2041C78.4183 19.1123 75.4133 20.7718 73.7818 23.5363C72.1504 26.3009 72.1504 29.7337 73.7818 32.4982C75.4133 35.2628 78.4183 36.9222 81.6271 36.8305C84.244 36.757 86.7358 35.6938 88.5998 33.8555L91.1066 36.6432C88.5187 39.212 85.0421 40.6872 81.3966 40.7635C74.0996 40.7635 68.4307 35.2242 68.4307 28.0353C68.4307 20.8464 74.1933 15.4512 81.591 15.4512C85.1338 15.4726 88.5328 16.8549 91.085 19.3121Z" fill="#0A1542"/>
<path fill-rule="evenodd" clip-rule="evenodd" d="M91.085 19.3121L88.5998 22.3879C86.8065 20.4209 84.288 19.2709 81.6271 19.2041C78.4183 19.1123 75.4133 20.7718 73.7818 23.5363C72.1504 26.3009 72.1504 29.7337 73.7818 32.4982C75.4133 35.2628 78.4183 36.9222 81.6271 36.8305C84.244 36.757 86.7358 35.6938 88.5998 33.8555L91.1066 36.6432C88.5187 39.212 85.0421 40.6872 81.3966 40.7635C74.0996 40.7635 68.4307 35.2242 68.4307 28.0353C68.4307 20.8464 74.1933 15.4512 81.591 15.4512C85.1338 15.4726 88.5328 16.8549 91.085 19.3121Z" fill="#0A1542"/>
<path d="M100.543 34.9359L98.1444 40.5905H93.7432L104.793 15.5591H109.115L120.057 40.5905H115.555L113.163 34.9359H100.543ZM106.832 20.0611L102.113 31.183H111.557L106.832 20.0611Z" fill="#0A1542"/>
<path d="M132.822 15.5591C139.117 15.5591 142.726 18.6637 142.726 24.1022C142.726 29.7495 139.124 33.0414 132.822 33.0414H127.059V40.5905H122.838V15.5591H132.822ZM127.059 29.2453H132.634C136.502 29.2453 138.678 27.603 138.678 24.203C138.678 20.8031 136.517 19.3408 132.634 19.3408H127.066L127.059 29.2453Z" fill="#0A1542"/>
<path fill-rule="evenodd" clip-rule="evenodd" d="M156.75 19.348V40.5905H152.529V19.348H144.605V15.5591H164.667V19.348H156.75Z" fill="#0A1542"/>
<path fill-rule="evenodd" clip-rule="evenodd" d="M189.921 30.2538C189.921 36.7943 185.808 40.7993 179.052 40.7993C172.295 40.7993 168.139 36.7367 168.139 30.2538V15.5591H172.36V30.2538C172.36 34.4749 174.975 37.0104 179.088 37.0104C183.201 37.0104 185.7 34.5109 185.7 30.2538V15.5591H189.921V30.2538Z" fill="#0A1542"/>
<path d="M207.361 33.0054C207.001 33.0054 206.641 33.0054 206.216 33.0054H200.251V40.5905H196.03V15.5591H206.187C212.591 15.5591 216.271 18.6637 216.271 24.1022C216.271 28.1072 214.413 30.9309 211.085 32.2203L216.704 40.5905H211.906L207.361 33.0054ZM206.216 29.2525C210.077 29.2525 212.295 27.6102 212.295 24.2102C212.295 20.8103 210.077 19.348 206.216 19.348H200.251V29.2525H206.216Z" fill="#0A1542"/>
<path fill-rule="evenodd" clip-rule="evenodd" d="M227.227 19.4488V26.2055H239.472V30.0016H227.227V36.9024H240.999V40.6913H222.991V15.6455H240.877V19.4488H227.227Z" fill="#0A1542"/>
<path d="M81.7793 32.8399C84.4766 32.8399 86.6631 30.7049 86.6631 28.0713C86.6631 25.4377 84.4766 23.3027 81.7793 23.3027C79.0821 23.3027 76.8955 25.4377 76.8955 28.0713C76.8955 30.7049 79.0821 32.8399 81.7793 32.8399Z" fill="#0A1542"/>
</svg>
