<svg width="1117" height="192" viewBox="0 0 1117 192" fill="none" xmlns="http://www.w3.org/2000/svg">
<path d="M103.776 0H57.2242C25.6201 0 0 25.6201 0 57.2242V103.776C0 135.38 25.6201 161 57.2242 161H103.776C135.38 161 161 135.38 161 103.776V57.2242C161 25.6201 135.38 0 103.776 0Z" fill="#F9D659"/>
<path fill-rule="evenodd" clip-rule="evenodd" d="M129.934 45.0242L119.36 58.136C111.74 49.7859 101.052 44.8926 89.7524 44.5801C69.0092 44.5801 52.1935 61.3958 52.1935 82.139C52.1935 102.882 69.0092 119.698 89.7524 119.698C100.869 119.358 111.446 114.825 119.36 107.009L130.039 118.894C119.053 129.808 104.303 136.097 88.8219 136.468C57.5651 136.468 33.3506 112.846 33.3506 82.2236C33.3506 51.6013 57.8823 28.571 89.4352 28.571C104.547 28.6508 119.048 34.5422 129.934 45.0242Z" fill="white"/>
<path d="M295.8 112C295.8 92.2998 295.8 72.5998 295.8 52.9998C295.8 52.6998 295.8 52.3998 295.8 51.9998C295.8 49.1998 296 48.9998 298.8 48.9998C305.4 48.9998 311.9 48.9998 318.5 48.9998C321.1 48.9998 321.4 49.2998 321.4 51.8998C321.5 53.6998 321.5 55.5998 321.5 57.3998C321.5 57.9998 321.6 58.5998 322.2 58.7998C322.9 59.0998 323.4 58.6998 323.9 58.2998C325.9 56.4998 327.7 54.3998 329.9 52.8998C330.8 52.2998 331.6 51.7998 332.6 51.3998C338.9 48.5998 345.4 47.8998 352.3 48.6998C362.1 49.8998 369.7 54.5998 376.1 61.8998C381 67.5998 383.8 74.2998 385.5 81.4998C386 83.5998 386 85.7998 386.1 87.8998C386.2 92.0998 386.3 96.1998 385.8 100.4C385.1 105.9 383.1 111.1 380.4 115.9C376.3 123 370.6 128.3 363.2 131.9C359.9 133.5 356.4 134.6 352.7 134.9C348 135.3 343.3 135.5 338.7 134.1C335.9 133.3 333.4 131.9 331 130.4C328.4 128.7 326.1 126.7 324.2 124.2C323.9 123.8 323.6 123.5 323.1 123.3C322.5 123.1 321.9 123.2 321.8 123.9C321.6 124.7 321.6 125.5 321.6 126.3C321.6 141.3 321.6 156.2 321.6 171.2C321.6 175.2 321.6 175.2 317.6 175.2C311.7 175.2 305.8 175.2 299.8 175.2C299.2 175.2 298.7 175.2 298.1 175.2C296 175.1 295.9 175 295.8 173C295.8 172.6 295.8 172.2 295.8 171.8C295.8 151.8 295.8 131.9 295.8 112ZM321.5 90.9998C321.4 97.1998 322.5 101.8 325.8 106C332.1 114.2 344 116.1 352.5 109.5C357.2 105.9 359.7 100.9 360.3 94.9998C360.9 88.3998 360 82.1998 355.6 76.9998C352 72.7998 347.5 70.2998 341.8 69.8998C338.5 69.6998 335.4 70.3998 332.6 71.8998C327.8 74.4998 324.2 78.0998 322.6 83.4998C321.8 86.0998 321.7 88.5998 321.5 90.9998Z" fill="white"/>
<path d="M1026.5 77.5C1026.5 59.5 1026.5 41.5 1026.5 23.5C1026.5 21.1 1026.5 21 1028.9 21C1035.8 21 1042.7 21 1049.5 21C1051.7 21 1051.8 21.1 1051.8 23.3C1051.8 33.9 1051.8 44.6 1051.8 55.2C1051.8 56 1051.7 56.8 1051.9 57.6C1052.2 59.1 1053 59.2 1054.2 58.2C1056.2 56.5 1058 54.6 1060.1 53.1C1061.2 52.3 1062.3 51.6 1063.6 51.1C1069.9 48.5 1076.3 47.7 1083.1 48.6C1086.6 49.1 1090 50.1 1093.2 51.4C1096.2 52.5 1098.7 54.6 1101.2 56.6C1107.5 61.6 1111.9 68 1114.3 75.5C1116.7 83.1 1117.5 90.9 1116.2 98.9C1115.6 102.7 1115 106.5 1113.6 110.1C1111.7 114.9 1108.9 119.3 1105.4 123.1C1102 126.9 1098 129.8 1093.4 132C1090.3 133.6 1087 134.5 1083.6 134.9C1078.7 135.4 1073.7 135.6 1068.9 134.1C1063.1 132.3 1058.4 128.9 1054.6 124.3C1054.2 123.8 1053.9 123.1 1053.2 123.2C1052.3 123.4 1052 124.2 1052 125.1C1051.9 126.9 1051.9 128.6 1051.9 130.4C1051.9 130.8 1051.9 131.2 1051.9 131.6C1051.9 134.2 1051.8 134.3 1049.2 134.3C1042.6 134.3 1036.1 134.3 1029.5 134.4C1029.1 134.4 1028.7 134.4 1028.3 134.4C1027.1 134.4 1026.6 133.7 1026.6 132.5C1026.6 131.9 1026.6 131.2 1026.6 130.6C1026.5 112.8 1026.5 95.1 1026.5 77.5ZM1090.8 91.4C1090.8 90.8 1090.7 89.5 1090.6 88.2C1089.9 77.1 1079.6 69.1 1069.9 69.9C1068.2 70 1066.6 70.5 1065.1 71.1C1061.4 72.5 1058.2 74.7 1055.9 78C1052.3 83 1051.5 88.7 1052 94.6C1052.4 99.5 1054.1 104 1057.6 107.5C1062.8 112.7 1069.7 115.1 1077.8 112.2C1084.7 109.7 1089 104.8 1090.3 97.5C1090.6 95.7 1090.6 93.9 1090.8 91.4Z" fill="white"/>
<path d="M830.699 60.3999C826.499 60.3999 822.399 60.3999 818.199 60.3999C816.499 60.3999 815.399 59.7999 814.499 58.2999C812.299 54.6999 809.099 52.0999 805.199 50.4999C798.499 47.5999 791.699 48.0999 784.899 50.2999C780.699 51.6999 776.899 53.9999 773.999 57.2999C771.299 60.3999 769.199 63.6999 767.899 67.6999C765.799 74.2999 765.599 80.8999 766.599 87.5999C767.999 96.3999 772.199 103.7 780.099 108.1C788.299 112.7 797.099 113.4 805.999 109.9C809.499 108.5 812.199 105.9 814.199 102.8C815.499 100.8 816.999 100.1 819.299 100.1C827.199 100.2 835.099 100.2 843.099 100.2C846.199 100.2 846.399 100.6 845.199 103.6C842.399 110.5 838.399 116.6 832.799 121.5C828.599 125.2 824.099 128.2 818.799 130.4C814.599 132.1 810.399 133.7 805.899 134.4C799.499 135.5 792.999 135.6 786.499 134.7C778.399 133.6 770.899 130.7 764.199 126.2C755.099 120 748.199 112 744.099 101.6C740.799 93.0999 739.999 84.2999 740.599 75.1999C740.899 71.7999 741.299 68.2999 741.999 64.9999C742.899 61.0999 744.599 57.4999 746.399 53.8999C749.699 47.3999 754.399 41.9999 759.999 37.4999C764.299 33.9999 769.099 31.0999 774.399 29.0999C785.199 25.0999 796.199 24.5999 807.399 26.5999C817.299 28.3999 825.699 32.8999 833.099 39.4999C838.699 44.4999 842.499 50.8999 845.599 57.6999C846.399 59.5999 845.799 60.3999 843.799 60.3999C839.299 60.3999 834.999 60.3999 830.699 60.3999Z" fill="white"/>
<path d="M270.5 89.3998C270.5 100.9 270.5 110.3 270.5 119.6C270.5 123.7 270.4 127.8 270.3 131.8C270.2 133.9 269.9 134.2 267.9 134.2C260.9 134.2 254 134.2 247 134.2C244.9 134.2 244.8 134.1 244.8 132C244.8 129.7 244.8 127.4 244.8 125C244.8 124.3 244.9 123.5 244 123.2C243.2 122.9 242.6 123.5 242.2 124.1C240.2 127.1 237.3 129 234.4 131C230.9 133.4 226.9 134.6 222.7 135C219.9 135.3 217.1 135.2 214.3 135C208.7 134.6 203.7 132.4 198.9 129.5C194.6 126.9 191.2 123.3 188.2 119.4C186.5 117.3 185.3 114.8 184.2 112.4C179.8 103 179.3 93.0998 180.8 82.8998C182.1 73.3998 186.3 65.2998 193.1 58.6998C196.9 54.9998 201.3 51.9998 206.5 50.2998C210.7 48.8998 214.9 48.0998 219.2 48.1998C227.7 48.2998 235.4 50.5998 241.4 56.9998C242.2 57.7998 242.8 59.2998 244.2 58.6998C245.4 58.1998 244.8 56.6998 244.9 55.5998C245 53.9998 244.9 52.3998 244.9 50.7998C245 49.1998 245.1 48.8998 246.7 48.8998C253.9 48.8998 261.1 48.8998 268.3 48.7998C269.6 48.7998 270.2 49.3998 270.3 50.5998C270.4 51.3998 270.4 52.1998 270.4 52.9998C270.4 61.4998 270.4 69.8998 270.4 78.3998C270.3 82.8998 270.6 87.1998 270.5 89.3998ZM205.8 91.6998C205.6 97.6998 207.3 103 211.5 107.4C214.2 110.3 217.5 112.3 221.3 113C225 113.7 228.7 113.6 232.3 112.1C236.2 110.5 239.2 107.8 241.6 104.5C242.6 103.1 243.3 101.5 243.8 99.7998C244.9 95.9998 244.8 92.1998 244.7 88.3998C244.6 86.1998 244 83.9998 243.1 81.8998C241.3 77.4998 238.1 74.3998 234 72.0998C232.3 71.0998 230.4 70.3998 228.4 70.0998C224.8 69.5998 221.3 69.8998 217.9 71.4998C214.6 73.0998 211.8 75.1998 209.7 78.1998C206.9 82.2998 205.6 86.7998 205.8 91.6998Z" fill="white"/>
<path d="M697.1 99.6999C688.7 99.6999 680.3 99.6999 671.9 99.6999C671.4 99.6999 670.9 99.6999 670.5 99.6999C667.6 99.7999 666.9 101 667.9 103.7C669.6 108.2 672.9 111.1 677.1 112.9C679.4 113.8 681.9 113.8 684.4 113.7C688.6 113.5 692.4 112.2 695.2 108.9C696 107.9 697.1 107.6 698.4 107.6C706.1 107.7 713.7 107.7 721.4 107.8C721.8 107.8 722.2 107.8 722.6 107.9C723.4 108.1 723.7 108.5 723.4 109.3C722.1 112.4 720.9 115.6 718.8 118.4C716.3 121.6 713.7 124.6 710.4 126.9C704.1 131.4 697.1 134.5 689.3 135.1C683.4 135.5 677.5 135.6 671.7 134.1C667.9 133.2 664.4 131.5 661 129.6C654.8 126.1 650.1 121.1 646.6 115C644.6 111.5 643.2 107.9 642.5 103.9C641.7 99.6999 641 95.5999 641 91.2999C640.9 87.4999 641.8 83.6999 642.4 79.9999C642.9 77.3999 643.5 74.8999 644.6 72.3999C647.5 65.3999 652.2 59.9999 658.3 55.5999C660.9 53.6999 663.6 52.0999 666.7 51.0999C674.3 48.5999 682.1 47.5999 690.1 48.6999C694.6 49.2999 698.8 50.4999 703 51.9999C706 53.0999 708.6 55.0999 711.1 56.8999C718 61.7999 722.3 68.3999 724.9 76.3999C727.2 83.4999 727.2 90.6999 726.7 97.8999C726.6 99.4999 726.3 99.6999 724.3 99.6999C719.3 99.6999 714.4 99.6999 709.4 99.6999C705.3 99.6999 701.2 99.6999 697.1 99.6999ZM684 84.2999C687 84.2999 689.9 84.2999 692.9 84.2999C694.4 84.2999 695.9 84.2999 697.4 84.2999C700.2 84.1999 700.7 83.3999 700 80.7999C698.5 75.3999 691.7 69.6999 685.8 69.7999C684 69.7999 682.3 69.7999 680.5 69.8999C679.7 69.8999 679 70.0999 678.2 70.3999C673.5 72.2999 670.2 75.2999 668.3 80.0999C667 83.4999 667.4 84.1999 671 84.2999C675.4 84.3999 679.7 84.2999 684 84.2999Z" fill="white"/>
<path d="M555.2 93.7999C555.1 103.5 555.1 115.2 555.2 126.9C555.2 128.6 555.2 130.3 555.1 131.9C555 133.9 554.8 134.2 552.7 134.3C550.3 134.4 547.9 134.3 545.5 134.3C541.5 134.3 537.5 134.3 533.5 134.3C529.8 134.3 529.8 134.3 529.7 130.7C529.7 129.2 529.7 127.7 529.7 126.1C529.7 125.7 529.7 125.3 529.7 124.9C529.7 124.2 529.6 123.4 528.7 123.2C527.9 123 527.5 123.6 527.1 124.1C526.4 124.9 525.9 125.8 525.1 126.5C519.6 132 513 134.9 505.3 135.2C501.1 135.4 496.9 135.3 492.9 134.1C487.3 132.4 482.5 129.4 478.6 125C476.3 122.4 474.4 119.4 473 116.1C471.8 113.3 471.1 110.3 470.8 107.3C470.2 101.3 470 95.1999 470 89.0999C470 83.6999 469.9 78.1999 469.9 72.7999C469.9 65.8999 469.7 59.0999 470.1 52.1999C470.1 51.5999 470.2 50.8999 470.4 50.2999C470.6 49.4999 471.1 49.0999 471.9 49.0999C472.4 49.0999 472.9 49.0999 473.3 49.0999C479.5 49.0999 485.8 49.0999 492 49.0999C495.4 49.0999 495.4 49.0999 495.4 52.3999C495.4 65.9999 495.4 79.5999 495.4 93.1999C495.4 96.4999 495.2 99.8999 496.4 103.1C497.5 106 499 108.7 501.8 110.4C508.6 114.6 515.6 114.5 522.4 110.6C525.7 108.7 527.5 105.4 528.5 101.8C529.2 99.2999 529.4 96.7999 529.4 94.1999C529.3 80.2999 529.4 66.3999 529.4 52.4999C529.4 51.8999 529.4 51.3999 529.4 50.7999C529.5 49.8999 530 49.2999 530.9 49.1999C531.4 49.0999 532 49.0999 532.6 49.0999C539.1 49.0999 545.6 49.0999 552 49.0999C554.4 49.0999 554.7 49.2999 554.7 51.6999C554.8 55.1999 554.8 58.6999 554.8 62.2999C555.2 71.9999 555.2 81.8999 555.2 93.7999Z" fill="white"/>
<path d="M1000.8 91.7999C1000.8 104.8 1000.8 117.9 1000.8 130.9C1000.8 134.2 1000.8 134.3 997.5 134.3C991.4 134.3 985.3 134.3 979.3 134.3C978.9 134.3 978.5 134.3 978.1 134.3C976.1 134.2 975.9 133.9 975.8 132C975.7 130.2 975.8 128.5 975.8 126.7C975.8 126 975.8 125.3 975.7 124.5C975.7 123.8 975.3 123.2 974.7 123C973.9 122.7 973.5 123.4 973.2 123.9C971.9 125.9 970.1 127.5 968.2 129C963.5 132.7 958.1 134.5 952.1 134.9C947.4 135.2 942.8 134.9 938.3 133.6C934.8 132.6 931.5 130.7 928.7 128.5C924.6 125.2 921.3 121 919.3 116C918 112.6 917 109.1 916.7 105.4C915.3 91.0999 916.3 76.7999 916 62.4999C915.9 58.7999 916 55.0999 916.1 51.4999C916.1 49.2999 916.5 48.8999 918.8 48.8999C925.4 48.8999 932.1 48.8999 938.7 48.8999C941.2 48.8999 941.6 49.2999 941.6 51.8999C941.6 65.8999 941.6 79.8999 941.6 93.8999C941.6 96.8999 941.6 99.7999 942.6 102.7C944.8 109.3 950.5 112.9 956.6 113.3C960.6 113.6 964.4 113 967.9 111.1C970.7 109.6 972.6 107.3 973.8 104.5C975.2 101.3 975.8 97.7999 975.8 94.2999C975.7 80.4999 975.8 66.5999 975.8 52.7999C975.8 49.0999 975.8 49.0999 979.6 49.0999C985.8 49.0999 991.9 49.0999 998.1 49.0999C1000.6 49.0999 1000.9 49.2999 1000.9 51.7999C1000.9 61.7999 1000.9 71.7999 1000.9 81.7999C1000.8 85.0999 1000.8 88.3999 1000.8 91.7999Z" fill="white"/>
<path d="M432.999 89.5999C432.999 94.4999 433.199 99.3999 432.999 104.2C432.699 110.1 435.499 112.4 441.599 113C443.999 113.2 446.399 113.1 448.799 113.2C450.599 113.2 450.699 113.3 450.699 115.1C450.699 120.9 450.699 126.6 450.699 132.4C450.699 133.5 450.399 134.2 449.099 134.2C442.999 134.2 436.799 134.6 430.699 133.9C426.799 133.4 423.099 132.4 419.599 130.4C417.999 129.5 416.199 128.8 414.799 127.4C411.699 124.4 410.099 120.7 408.899 116.7C407.799 112.9 407.899 109.1 407.899 105.3C407.899 95.0999 407.899 84.9999 407.899 74.7999C407.899 74.0999 407.899 73.3999 407.899 72.5999C407.699 70.6999 406.899 69.9999 404.999 69.8999C403.799 69.8999 402.599 69.8999 401.399 69.8999C400.399 69.8999 399.899 69.3999 399.899 68.4999C399.899 67.9999 399.899 67.4999 399.899 67.0999C399.899 62.0999 399.899 56.9999 399.899 51.9999C399.899 51.4999 399.899 50.9999 399.899 50.5999C399.899 49.5999 400.399 49.1999 401.399 49.1999C402.299 49.1999 403.199 49.0999 403.999 49.1999C407.099 49.3999 408.099 48.5999 407.999 45.0999C407.899 43.9999 407.999 42.8999 407.999 41.6999C407.999 38.1999 407.999 34.6999 407.999 31.0999C407.999 28.0999 407.999 28.0999 410.899 28.0999C415.599 28.0999 420.299 28.0999 425.099 28.0999C426.899 28.0999 428.799 28.0999 430.599 28.0999C433.199 28.0999 433.199 28.0999 433.199 30.5999C433.199 35.1999 433.199 39.8999 433.199 44.4999C433.199 45.0999 433.199 45.7999 433.199 46.3999C433.299 48.3999 433.799 48.8999 435.799 49.0999C436.199 49.0999 436.599 49.0999 436.999 49.0999C440.899 49.0999 444.799 48.9999 448.699 49.1999C450.599 49.2999 450.699 49.2999 450.699 51.1999C450.699 55.6999 450.699 60.1999 450.699 64.5999C450.699 65.7999 450.699 66.9999 450.699 68.1999C450.699 69.3999 450.199 69.8999 448.899 69.8999C445.099 69.8999 441.399 69.8999 437.599 69.8999C436.899 69.8999 436.199 69.8999 435.399 69.8999C433.899 69.9999 433.299 70.5999 432.999 71.9999C432.899 72.5999 432.899 73.2999 432.899 73.8999C432.999 79.1999 432.999 84.3999 432.999 89.5999Z" fill="white"/>
<path d="M865.899 77.3999C865.899 59.5999 865.899 41.8999 865.899 24.0999C865.899 20.8999 865.599 20.8999 868.999 20.8999C875.499 20.8999 881.999 20.8999 888.399 20.8999C891.199 20.8999 891.199 20.8999 891.199 23.6999C891.199 36.1999 891.199 48.6999 891.199 61.0999C891.199 71.1999 891.199 81.2999 891.199 91.2999C891.199 100.8 891.099 110.3 891.199 119.8C891.199 123.6 891.099 127.5 891.099 131.3C891.099 133.8 890.799 134.1 888.299 134.1C881.699 134.1 875.199 134.1 868.599 134.1C865.899 134.1 865.699 133.8 865.699 131C865.899 113.3 865.899 95.3999 865.899 77.3999Z" fill="white"/>
<path d="M607.199 63.8998C608.099 62.9998 608.799 62.1998 609.299 61.2998C610.799 58.5998 612.899 56.3998 615.099 54.3998C618.899 50.8998 623.499 48.8998 628.599 48.3998C630.299 48.1998 630.699 48.5998 630.799 50.3998C630.799 57.5998 630.799 64.7998 630.799 71.9998C630.799 73.8998 630.599 74.0998 628.699 73.9998C624.999 73.9998 621.399 73.9998 617.699 74.8998C612.399 76.1998 608.999 79.1998 607.399 84.3998C606.699 86.4998 606.499 88.5998 606.499 90.7998C606.499 98.9998 606.499 107.3 606.499 115.5C606.499 120.8 606.499 126.2 606.499 131.5C606.499 133.7 606.199 134.1 603.799 134.1C597.199 134.1 590.699 134.1 584.099 134.1C580.799 134.1 580.699 134 580.699 130.7C580.699 109.8 580.699 88.7998 580.699 67.8998C580.699 62.4998 580.699 57.1998 580.699 51.7998C580.699 48.9998 580.999 48.7998 583.699 48.7998C590.299 48.7998 596.799 48.7998 603.399 48.7998C605.999 48.7998 606.299 48.9998 606.299 51.6998C606.399 54.6998 606.399 57.5998 606.399 60.5998C606.399 61.7998 606.399 62.7998 607.199 63.8998Z" fill="white"/>
<path d="M111.8 82.2C111.6 86.7 110.1 90.7 106.9 94C104.8 96.2 102.5 98.3 99.4996 99.1C95.5996 100.1 91.7996 101.3 87.5996 100C84.8996 99.2 82.2996 98.4 79.9996 96.8C79.5996 96.5 79.0996 96.4 78.7996 96C76.5996 93.3 74.1996 90.7 73.2996 87.1C72.9996 85.8 72.5996 84.4 72.1996 83C71.8996 82.1 71.8996 80.8 72.1996 79.9C72.8996 78.3 72.9996 76.5 73.5996 74.8C74.9996 70.8 77.5996 67.7 81.1996 65.6C84.6996 63.5 88.5996 62.1 92.6996 62.3C100.5 62.8 106.6 66.2 110 73.4C111.3 76.2 111.8 79.2 111.8 82.2Z" fill="#3552F0"/>
<path d="M933.4 177.5C932.3 177.7 932 178.6 931.6 179.5C930.4 182.5 928.7 185.3 927.6 188.4C927.5 188.6 927.3 188.8 927.2 189C926.1 190.8 925 190.8 924.1 189C922.9 186.7 921.9 184.3 920.7 181.9C920 180.4 919.4 178.9 918.3 177.4C917.2 178.2 917.5 179.3 917.4 180.2C917.3 182.7 917.4 185.2 917.4 187.6C917.4 188.2 917.5 188.9 917.2 189.5C916.9 189.9 916.8 190.7 916.1 190.5C915.6 190.4 915.2 189.9 915 189.3C914.9 188.8 914.9 188.3 914.9 187.9C914.9 182.8 914.9 177.7 914.9 172.6C914.9 171.6 914.7 170.3 916 170C917.3 169.7 917.7 170.9 918.1 171.9C920 176 922 180.1 923.8 184.2C924 184.6 924.2 185 924.5 185.4C925.3 186.4 926.1 186.4 926.7 185.2C928.1 182.4 929.3 179.6 930.6 176.8C931.4 175.1 932.1 173.5 932.9 171.8C933.1 171.3 933.5 170.8 933.8 170.4C934.1 170 934.6 169.8 935.1 169.9C935.7 170 935.8 170.5 935.8 171C935.8 171.2 935.8 171.3 935.8 171.5C935.8 177.3 935.8 183 935.8 188.8C935.8 189.5 935.7 190.4 935.1 190.4C934.2 190.5 933.8 189.6 933.8 188.7C933.8 185.8 933.8 182.9 933.7 180.1C934 179.4 934.2 178.4 933.4 177.5Z" fill="white"/>
<path d="M702.4 190.7C701.3 190.2 700.8 189.7 700.8 188.6C700.8 183.2 700.8 177.7 700.8 172.3C700.8 170.4 701.3 169.9 703.2 169.9C705.3 169.9 707.4 169.8 709.4 170.1C714.5 170.9 715.6 176 713.7 179.2C713.1 180.2 712.2 180.8 711.2 181.3C709.5 182.2 709.5 182.6 710.5 184.2C711.5 185.8 712.4 187.3 713.4 188.8C713.9 189.5 714 190.2 713.4 190.7C712.7 191.2 712.1 190.7 711.7 190C710.5 188.2 709.3 186.5 708.1 184.7C708 184.5 707.9 184.2 707.8 184.1C707 183 706.1 181.8 704.5 182.2C702.9 182.7 703.1 184.2 703.1 185.4C703 187.2 703.5 189 702.4 190.7ZM703.1 175.9C703.1 176.6 703.1 177.3 703.1 178C703.2 179.8 703.5 180.1 705.3 180.1C706.6 180.1 707.9 180.1 709.1 179.9C711.8 179.5 713.1 177.2 712.3 174.6C711.7 172.5 710.2 171.8 708.2 171.5C703.8 171 703.1 171.5 703.1 175.9Z" fill="white"/>
<path d="M792.099 180.4C792.699 186.6 786.399 191.3 781.199 191.2C775.899 191.1 770.399 186.5 770.699 180.1C770.899 174.3 775.299 169.8 781.499 169.7C787.599 169.6 792.499 174.7 792.099 180.4ZM781.299 189.1C786.299 189.7 789.899 185.1 789.899 180.5C789.899 175.3 786.399 171.5 781.399 171.5C776.299 171.4 772.899 175.6 772.699 180.1C772.599 184.4 776.199 189.6 781.299 189.1Z" fill="white"/>
<path d="M961.9 180.2C961.9 177.6 961.9 175.1 961.9 172.5C961.9 170.3 962.4 169.8 964.6 169.9C966.8 169.9 968.9 169.7 971.1 170.2C973.6 170.8 975.1 172.4 975.6 174.9C976.1 177.1 975.2 179 973.6 180.5C973.1 181 972.4 181.2 971.8 181.6C970.7 182.3 970.6 182.8 971.3 184C972.3 185.6 973.3 187.3 974.4 188.8C975 189.6 975.3 190.3 974.5 190.8C973.6 191.4 973 190.6 972.6 189.9C971.4 188.2 970.3 186.5 969.1 184.8C968.7 184.2 968.3 183.6 967.8 183.1C967.1 182.2 966.2 182 965.2 182.4C964.3 182.7 964 183.6 964 184.5C964 185.6 964.1 186.7 964 187.9C963.9 188.8 964.6 190.4 963.1 190.4C961.5 190.4 962 188.8 962 187.7C961.8 185.1 961.9 182.6 961.9 180.2ZM964 175.8C964 176.7 964 177.6 964 178.4C964.1 179.4 964.5 180.1 965.6 180.1C967.3 180.1 969 180.2 970.6 179.9C971.3 179.8 971.8 179.4 972.2 179C974.3 176.8 973.2 172.7 970.3 171.9C969.7 171.7 969.1 171.5 968.4 171.5C964.9 171.4 963.6 171.1 963.9 175.5C964 175.6 964 175.7 964 175.8Z" fill="white"/>
<path d="M853.7 180.4C853.7 177.7 853.7 175 853.7 172.3C853.7 170.2 854 170 856.1 169.9C858 169.9 859.9 169.8 861.8 170C864.3 170.3 866.3 171.4 867.1 174.1C867.9 176.6 867 179.3 864.8 180.8C864.5 181 864.2 181.1 863.9 181.2C862.4 182.1 862.1 182.8 863.1 184.3C864.1 185.8 865.1 187.4 866.2 188.8C866.7 189.4 866.9 190 866.4 190.5C865.7 191.2 865.1 190.7 864.6 190.1C863.8 189.3 863.1 188.3 862.4 187.3C861.6 186 860.9 184.7 859.9 183.5C859.1 182.5 858.1 181.8 856.8 182.3C855.5 182.7 855.7 183.9 855.7 184.9C855.7 186.2 855.7 187.5 855.7 188.7C855.7 189.2 855.6 189.6 855.5 190.1C855.4 190.5 855 190.7 854.6 190.7C854.3 190.7 854.1 190.4 853.9 190.1C853.6 189.5 853.7 188.9 853.7 188.2C853.7 185.6 853.7 183 853.7 180.4ZM859.9 180.1C860.3 180.1 861.2 180.1 862.2 179.9C863.8 179.6 864.8 178.5 865 176.8C865.3 174.8 864.6 172.9 863.2 172.2C861.3 171.4 859.4 171.2 857.4 171.5C856.4 171.6 855.8 172.2 855.9 173.3C855.9 174.5 855.9 175.7 855.9 176.9C855.9 180.2 856 180.3 859.9 180.1Z" fill="white"/>
<path d="M795.8 180.2C795.8 177.5 795.8 174.8 795.8 172.1C795.8 170.2 796.1 170 797.9 169.9C799.9 169.9 801.9 169.8 803.9 170C807 170.3 808.8 172 809.5 175C810 177 808.7 179.8 806.8 181C804.4 182.5 804.3 182.9 805.8 185.2C806.7 186.5 807.6 187.8 808.5 189.1C808.9 189.7 808.9 190.4 808.3 190.8C807.8 191.1 807.3 190.9 806.9 190.4C805.1 188.7 804.1 186.4 802.7 184.4C802.3 183.9 802 183.3 801.6 182.9C801 182.2 800.2 182.2 799.4 182.4C798.6 182.6 798.1 183.3 798.1 184.2C798.1 185.1 798.1 186 798.1 186.8C798.1 187.7 798.1 188.6 798 189.4C798 190.1 797.6 190.7 796.8 190.6C796.2 190.5 795.9 189.9 795.9 189.3C795.8 186.2 795.8 183.2 795.8 180.2ZM797.9 176C797.9 176.7 797.9 177.4 797.9 178.2C798 179.8 798.2 180.1 799.9 180.2C801 180.3 802.1 180.2 803.2 180.1C805.9 179.9 807 178.7 807.1 176.3C807.2 173.8 806.2 172.5 803.8 171.9C802.9 171.7 801.9 171.5 801 171.6C798.4 171.7 797.9 172.1 797.9 174.7C797.9 175 797.9 175.5 797.9 176Z" fill="white"/>
<path d="M957.499 189.4C957.499 189.9 957.399 190.3 956.999 190.5C956.399 190.8 956.099 190.4 955.799 190C955.399 189.3 954.999 188.6 954.699 187.9C954.299 186.5 953.499 186 952.099 186C950.099 186 948.099 186 946.099 186C944.799 186 943.799 186.3 943.499 187.8C943.399 188.6 942.899 189.3 942.499 189.9C942.299 190.3 941.899 190.7 941.299 190.4C940.799 190.1 940.599 189.7 940.799 189.2C940.999 188.5 941.399 187.9 941.599 187.3C943.099 182.4 945.099 177.6 946.699 172.7C946.899 172.1 947.199 171.5 947.599 171C948.699 169.4 949.999 169.6 950.799 171.3C951.899 173.6 952.399 176.1 953.399 178.4C954.799 181.6 955.799 185 956.999 188.2C957.299 188.8 957.399 189.1 957.499 189.4ZM949.399 174.4C949.199 174.4 949.099 174.4 949.099 174.4C947.099 176.9 946.299 179.8 945.599 182.8C945.399 183.7 946.099 184.1 946.899 184.1C948.299 184.2 949.799 184.2 951.199 184.1C952.599 184 952.999 183.4 952.599 182C952.399 181 951.999 180 951.599 179.1C950.999 177.6 950.699 175.7 949.399 174.4Z" fill="white"/>
<path d="M1075.7 189.4C1075.6 189.9 1075.6 190.3 1075.2 190.5C1074.7 190.7 1074.4 190.3 1074.2 190C1073.7 189.2 1073.1 188.4 1072.8 187.5C1072.4 186.3 1071.6 185.9 1070.4 185.9C1068.3 185.9 1066.3 185.9 1064.2 185.9C1062.9 185.9 1062 186.3 1061.8 187.7C1061.7 188.5 1061.1 189.1 1060.7 189.8C1060.4 190.2 1060.1 190.6 1059.5 190.3C1059 190 1058.9 189.6 1059 189.1C1059.6 187.3 1060.1 185.4 1060.9 183.7C1062 181.5 1062.6 179.1 1063.4 176.8C1064 175 1065 173.3 1065.5 171.5C1065.7 170.6 1066.4 169.9 1067.4 169.9C1068.4 169.9 1068.7 170.6 1069 171.4C1069.9 173.8 1070.8 176.1 1071.7 178.5C1072.9 181.7 1074.1 184.9 1075.2 188.1C1075.5 188.6 1075.6 189 1075.7 189.4ZM1067.3 184.3C1067.8 184.3 1068.3 184.3 1068.7 184.3C1071.1 184.4 1071.3 183.4 1070.6 181.4C1069.9 179.5 1069.2 177.5 1068.5 175.6C1068.3 175 1068 174.3 1067.2 174.3C1066.6 174.3 1066.3 175 1066.1 175.5C1065.5 177 1065.1 178.5 1064.5 180C1063 183.9 1063.3 184.3 1067.3 184.3Z" fill="white"/>
<path d="M750.3 190.8C749.3 190.3 748.9 189.5 748.5 188.5C747.8 186.2 747.6 186.1 745.1 186.1C743.5 186.1 741.9 186.1 740.3 186.1C737.8 186.1 737.7 186.2 736.8 188.5C736.6 188.9 736.5 189.4 736.2 189.8C736 190.2 735.6 190.5 735.2 190.9C733.9 189.7 734.6 188.4 735 187.3C736.8 182.1 738.8 177 740.7 171.9C740.9 171.4 741.2 170.9 741.6 170.5C742.3 169.8 743.2 169.8 743.8 170.7C744.1 171.1 744.4 171.6 744.6 172.2C745.6 175.8 747.3 179.1 748.5 182.7C749.1 184.5 749.8 186.3 750.4 188.1C751 189.2 751 189.2 750.3 190.8ZM742.5 184.2C743.3 184.2 744.1 184.3 744.9 184.2C745.9 184.1 746.5 183.5 746.2 182.4C745.4 179.9 744.6 177.4 743.7 175C743.5 174.5 743.1 174.2 742.6 174.3C742.1 174.3 742 174.8 741.9 175.1C741.2 176.8 740.6 178.7 739.9 180.4C738 184.6 739.6 184.3 742.5 184.2Z" fill="white"/>
<path d="M687.1 189.1C689 189.3 690.8 188.6 692.3 187C692.8 186.5 693.3 186 694 185.8C694.5 185.7 695 185.8 695.3 186.2C695.8 186.7 695.2 187 694.9 187.4C693.6 189.3 691.5 190.4 689.4 190.9C681.4 192.6 674.3 186.5 675.9 178.2C676.7 173.9 680 170.4 684.9 169.9C687.4 169.6 689.8 169.9 692.1 171C693.3 171.6 694.4 172.5 695 173.7C695.2 174 695.5 174.4 695.1 174.8C694.8 175.1 694.4 175.1 694 175.1C693.1 175 692.7 174.2 692.1 173.7C689.9 171.9 687.5 171.1 684.6 171.8C680.7 172.7 678.4 175.7 678.1 179.3C677.8 182.9 678.8 186.5 683 188.6C684.1 189 684.4 189.1 687.1 189.1Z" fill="white"/>
<path d="M1090.2 191.1C1086 190.9 1082.5 189.3 1080.6 185.4C1077.1 178.4 1081.5 170.1 1089.3 169.8C1092.1 169.7 1094.7 170.2 1097 171.8C1097.7 172.3 1098.2 172.9 1098.6 173.5C1098.8 173.9 1099 174.4 1098.6 174.8C1098.1 175.3 1097.5 175.1 1097.1 174.8C1096.7 174.6 1096.3 174.2 1096 173.9C1092.2 169.7 1084.5 171 1082.1 177C1080.8 180.3 1082 185.2 1084.8 187.5C1085.6 188.1 1086.5 188.7 1087.5 188.9C1090.6 189.3 1093.7 189.6 1096.1 186.8C1097.1 185.6 1098.3 185.4 1098.7 186.1C1099.1 186.7 1098.7 187.9 1097.5 188.6C1095.2 189.9 1093 191.4 1090.2 191.1Z" fill="white"/>
<path d="M878.4 191.1C875.8 191.3 873.8 190.2 872.3 188.1C871.9 187.5 871.6 186.9 872.2 186.4C872.8 185.9 873.6 185.9 874 186.7C875.4 189.3 877.8 189.3 880.2 189C881.8 188.8 883.2 187.3 883.5 185.7C883.7 184.4 882.7 182.8 881.2 182.2C879.9 181.7 878.6 181 877.1 180.9C876.4 180.8 875.7 180.5 875.1 180.2C873 179.4 871.8 177.8 871.7 175.5C871.6 173.1 872.7 171.3 874.9 170.3C877.2 169.3 879.6 169.3 881.9 170.2C882.8 170.5 883.6 171.1 884 172C884.3 172.6 885.2 173.2 884.4 173.8C883.7 174.4 882.9 174.1 882.4 173.3C881.6 172.1 880.3 171.6 879 171.3C876.8 170.8 874.5 172.1 874 174C873.4 176.2 874.7 178.3 877.1 178.7C878.6 178.9 880 179.5 881.5 179.9C883.5 180.4 885.1 181.6 885.4 183.9C885.8 186.4 884.9 188.2 883 189.7C881.5 191 880 191.1 878.4 191.1Z" fill="white"/>
<path d="M980.6 180.4C980.6 177.8 980.6 175.1 980.6 172.5C980.6 171.9 980.6 171.4 980.7 170.8C980.8 170.4 981 170 981.5 170C981.9 170 982.2 170.3 982.4 170.6C982.7 171.2 982.7 171.8 982.7 172.5C982.7 173.9 982.7 175.2 982.8 176.6C982.8 177.1 982.8 177.6 983.3 177.8C983.9 178 984.4 177.8 984.8 177.3C985.6 176.4 986.4 175.6 987.2 174.7C988.4 173.4 989.6 172.1 990.8 170.8C991.2 170.3 991.7 169.9 992.4 169.9C992.7 169.9 993 170.1 993.2 170.3C993.5 170.6 993.3 170.9 993.1 171.2C992.1 172.3 991.1 173.3 990.2 174.3C988.7 175.9 987.3 177.4 985.8 179C984.7 180.2 984.6 180.6 985.8 181.8C987.9 184.1 990.1 186.2 992.3 188.5C992.5 188.7 992.8 188.9 993 189.1C993.4 189.5 993.4 190 993.2 190.4C992.8 191 992.2 191 991.7 190.6C990.5 189.5 989.3 188.3 988.1 187.1C987 186 985.9 184.8 984.8 183.7C984.4 183.3 983.9 182.9 983.3 183.1C982.6 183.3 982.7 184 982.7 184.5C982.6 185.7 982.7 186.9 982.6 188.1C982.6 188.7 982.6 189.2 982.4 189.7C982.2 190.1 982 190.7 981.4 190.7C980.6 190.7 980.6 190 980.6 189.5C980.6 186.5 980.7 183.5 980.6 180.4Z" fill="white"/>
<path d="M1029 180.2C1029 177.6 1029 174.9 1029 172.3C1029 170.2 1029.5 169.8 1031.6 169.8C1034.1 169.9 1036.7 169.4 1039.1 170.5C1041.7 171.7 1043.1 174.5 1042.5 177.3C1041.9 180.2 1039.8 181.3 1037.3 181.8C1036.3 182 1035.2 182.1 1034.2 182C1031.9 181.8 1030.8 182.8 1031.1 185.3C1031.2 186.2 1031.1 187.2 1031.1 188.2C1031.1 189.1 1031.2 190.1 1030.2 190.5C1029.6 190.8 1029 189.6 1029 188C1029 186.9 1029 185.8 1029 184.7C1029 183.2 1029 181.7 1029 180.2ZM1034.8 180.1C1035.1 180.1 1035.4 180 1035.8 180.1C1039.8 180.6 1041.8 176.5 1039.6 173.1C1039.3 172.7 1039 172.3 1038.5 172.2C1036.8 171.8 1035.1 171.3 1033.3 171.6C1031.7 171.8 1031.2 172.3 1031.1 173.9C1031 175.2 1031.1 176.5 1031.1 177.7C1031.2 180 1031.4 180.2 1033.6 180.2C1034 180.1 1034.4 180.1 1034.8 180.1Z" fill="white"/>
<path d="M1104.6 180.4C1104.6 177.6 1104.6 174.8 1104.6 172C1104.6 170 1104.9 169.8 1106.9 169.8C1109.1 169.8 1111.4 169.8 1113.6 169.8C1114.1 169.8 1114.6 169.9 1114.7 170.5C1114.7 171.1 1114.2 171.3 1113.7 171.3C1112.3 171.3 1110.8 171.3 1109.4 171.4C1107.2 171.5 1106.9 171.8 1106.9 174C1106.9 175.2 1106.9 176.4 1106.9 177.6C1106.9 178.6 1107.3 179.1 1108.3 179.2C1109.3 179.3 1110.2 179.3 1111.2 179.4C1111.8 179.4 1112.3 179.4 1112.9 179.5C1113.4 179.6 1113.8 179.8 1113.8 180.4C1113.8 180.9 1113.3 181 1112.9 181C1111.8 181 1110.7 181 1109.5 181.1C1107.4 181.2 1107 181.6 1106.9 183.6C1106.9 184.9 1106.9 186.2 1106.9 187.4C1106.9 188.6 1107.5 189.1 1108.7 189.1C1110.3 189.1 1111.9 189.1 1113.5 189.1C1114.2 189.1 1114.8 189.2 1114.9 190C1114.9 191 1114.2 190.9 1113.6 190.9C1111.4 190.9 1109.1 190.9 1106.9 190.9C1105.2 190.9 1104.9 190.7 1104.9 189C1104.8 186.7 1104.9 184.4 1104.9 182.1C1104.6 181.6 1104.6 181 1104.6 180.4Z" fill="white"/>
<path d="M719.699 180.2C719.699 177.6 719.699 174.9 719.699 172.3C719.699 170.1 719.899 169.9 721.999 169.9C723.999 169.9 725.999 169.9 727.999 169.9C728.699 169.9 729.699 169.7 729.699 170.7C729.699 171.7 728.599 171.4 727.999 171.5C726.799 171.6 725.599 171.5 724.399 171.5C722.199 171.5 721.899 171.8 721.899 174C721.899 175.1 721.999 176.2 721.899 177.4C721.799 178.7 722.499 179.3 723.699 179.3C724.699 179.3 725.599 179.4 726.599 179.4C727.199 179.4 727.699 179.5 728.299 179.6C728.599 179.7 728.899 179.9 728.899 180.3C728.899 180.8 728.499 181 728.099 181C726.799 181 725.499 181 724.299 181.1C722.499 181.2 722.099 181.6 721.999 183.4C721.899 184.8 721.999 186.3 721.999 187.7C721.999 188.7 722.499 189.1 723.499 189.1C724.899 189.1 726.399 189.1 727.799 189.1C728.299 189.1 728.799 189.1 729.199 189.2C729.799 189.3 729.899 189.8 729.899 190.3C729.899 190.8 729.599 191 729.099 191C726.399 191 723.699 191 720.999 190.9C719.999 190.9 719.899 189.8 719.899 189.1C719.799 187.2 719.899 185.3 719.899 183.4C719.699 182.2 719.699 181.2 719.699 180.2Z" fill="white"/>
<path d="M997.8 180.6C997.8 177.8 997.8 175 997.8 172.2C997.8 170.2 998.1 169.9 1000 169.8C1002.3 169.7 1004.6 169.8 1006.9 169.8C1007.4 169.8 1007.9 169.9 1007.9 170.5C1007.9 171 1007.4 171.1 1007 171.2C1005.8 171.4 1004.6 171.4 1003.4 171.4C1000.3 171.4 999.9 171.8 999.9 174.8C999.9 175.3 999.9 175.8 999.9 176.2C999.9 178.9 1000.2 179.1 1002.9 179.2C1003.9 179.2 1004.8 179.2 1005.8 179.3C1006.3 179.3 1006.7 179.6 1006.7 180.2C1006.6 180.7 1006.2 180.7 1005.8 180.7C1004.8 180.7 1003.7 180.7 1002.7 180.8C1000.8 180.9 1000.1 181.5 1000 183.4C999.9 184.5 999.9 185.6 1000 186.8C1000.1 188.6 1000.4 188.9 1002.1 189C1003.3 189 1004.5 189 1005.7 189C1006.2 189 1006.7 189 1007.1 189.1C1007.7 189.2 1007.9 189.6 1007.9 190.1C1007.9 190.6 1007.5 190.8 1007.1 190.8C1006.6 190.9 1006.1 190.9 1005.7 190.9C1004 190.9 1002.3 190.9 1000.7 190.9C998.2 190.9 997.9 190.6 997.9 188.2C997.8 185.7 997.8 183.2 997.8 180.6Z" fill="white"/>
<path d="M755.199 170.5C755.699 169.7 756.599 169.8 757.399 169.8C760.699 169.9 763.999 169.4 767.499 170.2C766.799 171.6 765.799 171.3 764.899 171.4C762.799 171.6 762.599 171.7 762.599 173.9C762.599 178.3 762.599 182.7 762.599 187.1C762.599 189.6 762.199 190.8 761.299 190.5C759.699 189.9 760.099 188.5 760.099 187.2C760.099 182.9 760.199 178.6 760.099 174.2C760.099 171.6 759.899 171.5 757.399 171.3C756.299 171.3 756.299 171.3 755.199 170.5Z" fill="white"/>
<path d="M1018.3 190.7C1017.4 190 1017.5 189 1017.5 188C1017.5 183.5 1017.5 179.1 1017.5 174.6C1017.5 172 1017.2 171.7 1014.8 171.4C1014 171.3 1012.5 171.6 1012.5 170.7C1012.5 169.5 1014 169.9 1014.9 169.9C1017.3 169.8 1019.7 169.9 1022.1 169.9C1022.7 169.9 1023.2 169.9 1023.8 170C1024.2 170.1 1024.6 170.2 1024.5 170.7C1024.5 171.1 1024.1 171.2 1023.8 171.3C1023.3 171.4 1022.9 171.4 1022.4 171.5C1020 171.8 1019.8 171.9 1019.8 174.3C1019.8 178.9 1019.8 183.6 1019.8 188.2C1019.8 189.3 1019.6 190.3 1018.3 190.7Z" fill="white"/>
<path d="M832.6 180.3C832.6 177.6 832.6 174.9 832.6 172.2C832.6 170.2 832.9 170 834.8 170C837 170 839.1 170 841.3 170C841.7 170 842.1 170 842.5 170.1C842.9 170.2 843.3 170.3 843.3 170.8C843.3 171.2 842.9 171.3 842.6 171.4C842.1 171.5 841.5 171.5 840.9 171.5C839.5 171.5 838.2 171.5 836.8 171.6C835.2 171.7 834.7 172.2 834.7 173.9C834.6 175.1 834.7 176.3 834.7 177.5C834.6 178.8 835.3 179.4 836.6 179.5C837.4 179.6 838.2 179.6 839 179.6C839.6 179.6 840.1 179.6 840.7 179.7C841.1 179.8 841.5 180 841.5 180.5C841.5 181 841 181.1 840.7 181.1C839.7 181.2 838.8 181.1 837.8 181.2C835.3 181.3 834.8 181.7 834.8 184.1C834.8 185.6 834.8 187.1 834.8 188.7C834.8 189.3 834.8 190 834.3 190.5C833.7 191.2 833.1 191.1 832.9 190.3C832.7 189.7 832.7 189 832.7 188.4C832.6 185.5 832.6 182.9 832.6 180.3Z" fill="white"/>
<path d="M1046.5 180.2C1046.5 177.6 1046.5 174.9 1046.5 172.3C1046.5 171.5 1046.3 170.2 1047.4 170.2C1048.5 170.2 1048.5 171.5 1048.5 172.5C1048.5 175 1048.5 177.5 1048.5 179.9C1048.5 182.3 1048.5 184.7 1048.5 187.1C1048.5 188.9 1048.7 189 1050.4 189.1C1051.8 189.2 1053.1 189.1 1054.5 189.1C1055.1 189.1 1055.6 189.4 1055.6 190.1C1055.6 190.9 1055 191 1054.5 191C1052.3 191 1050.2 191 1048 191C1047.1 191 1046.7 190.6 1046.5 189.8C1046.4 188.9 1046.3 188.1 1046.3 187.2C1046.5 184.8 1046.5 182.5 1046.5 180.2Z" fill="white"/>
<path d="M901.5 170.6C900.8 171.5 899.9 171.4 899 171.6C896.9 171.9 896.7 172 896.7 174.1C896.7 178.4 896.7 182.7 896.7 187C896.7 187.6 896.7 188.3 896.7 188.9C896.7 189.8 896.1 190.5 895.3 190.5C894.6 190.5 894.5 189.6 894.5 189C894.5 187.2 894.4 185.3 894.4 183.5C894.4 180.6 894.4 177.8 894.4 174.9C894.4 172.2 893.9 171.7 891.3 171.5C890.6 171.4 889.6 171.6 889.5 170.7C889.5 169.8 890.5 169.9 891.2 169.9C893.9 169.9 896.6 169.9 899.3 169.9C900.1 169.9 900.9 169.8 901.5 170.6Z" fill="white"/>
<path d="M849 180.6C849 182.9 849 185.2 849 187.5C849 188 849 188.5 849 188.9C848.9 189.7 848.8 190.6 847.8 190.6C847 190.6 846.8 189.7 846.8 189C846.8 183.2 846.8 177.4 846.8 171.6C846.8 170.8 847 170.1 848 170.2C848.9 170.2 849 170.9 849 171.6C849 174.5 849 177.6 849 180.6Z" fill="white"/>
<path d="M821.2 178.9C822.6 178.9 824.1 178.9 825.5 178.9C826 178.9 826.6 178.9 826.7 179.5C826.8 180.2 826 180.3 825.5 180.4C825.1 180.5 824.7 180.5 824.3 180.5C822.1 180.5 819.9 180.5 817.6 180.5C817.1 180.5 816.6 180.4 816.2 180.3C815.9 180.2 815.6 179.9 815.6 179.6C815.6 179.2 816 178.9 816.4 178.9C818 178.9 819.6 178.9 821.2 178.9Z" fill="white"/>
</svg>
