<svg width="963" height="220" viewBox="0 0 963 220" fill="none" xmlns="http://www.w3.org/2000/svg">
<path d="M141.199 0.589355H77.8602C34.8592 0.589355 0 35.4486 0 78.4496V141.789C0 184.79 34.8592 219.649 77.8602 219.649H141.199C184.2 219.649 219.059 184.79 219.059 141.789V78.4496C219.059 35.4486 184.2 0.589355 141.199 0.589355Z" fill="#564DFC"/>
<path fill-rule="evenodd" clip-rule="evenodd" d="M176.791 61.8501L162.403 79.6902C152.036 68.3289 137.494 61.671 122.119 61.2458C93.8956 61.2458 71.0159 84.1256 71.0159 112.349C71.0159 140.573 93.8956 163.452 122.119 163.452C137.245 162.989 151.636 156.822 162.403 146.188L176.934 162.359C161.986 177.208 141.917 185.765 120.853 186.271C78.3246 186.271 45.3779 154.13 45.3779 112.464C45.3779 70.7989 78.7562 39.4636 121.688 39.4636C142.249 39.5721 161.98 47.5881 176.791 61.8501Z" fill="white"/>
<path d="M122.838 140.318C138.491 140.318 151.181 127.938 151.181 112.666C151.181 97.3937 138.491 85.0134 122.838 85.0134C107.185 85.0134 94.4951 97.3937 94.4951 112.666C94.4951 127.938 107.185 140.318 122.838 140.318Z" fill="#6EE4D3"/>
<path fill-rule="evenodd" clip-rule="evenodd" d="M363.851 77.7336L353.924 90.0203C346.76 82.1627 336.7 77.5691 326.07 77.302C313.252 76.9355 301.248 83.5643 294.731 94.6077C288.214 105.651 288.214 119.364 294.731 130.407C301.248 141.451 313.252 148.079 326.07 147.713C336.524 147.419 346.478 143.172 353.924 135.829L363.937 146.965C353.6 157.226 339.712 163.119 325.149 163.424C296.001 163.424 273.355 141.296 273.355 112.579C273.355 83.8626 296.375 62.3105 325.926 62.3105C340.078 62.3962 353.656 67.9179 363.851 77.7336Z" fill="white"/>
<path fill-rule="evenodd" clip-rule="evenodd" d="M363.851 77.7336L353.924 90.0203C346.76 82.1627 336.7 77.5691 326.07 77.302C313.252 76.9355 301.248 83.5643 294.731 94.6077C288.214 105.651 288.214 119.364 294.731 130.407C301.248 141.451 313.252 148.079 326.07 147.713C336.524 147.419 346.478 143.172 353.924 135.829L363.937 146.965C353.6 157.226 339.712 163.119 325.149 163.424C296.001 163.424 273.355 141.296 273.355 112.579C273.355 83.8626 296.375 62.3105 325.926 62.3105C340.078 62.3962 353.656 67.9179 363.851 77.7336Z" fill="white"/>
<path d="M401.633 140.145L392.051 162.733H374.47L418.61 62.7422H435.874L479.583 162.733H461.599L452.045 140.145H401.633ZM426.753 80.7262L407.906 125.154H445.629L426.753 80.7262Z" fill="white"/>
<path d="M530.574 62.7422C555.722 62.7422 570.138 75.144 570.138 96.8686C570.138 119.428 555.751 132.578 530.574 132.578H507.554V162.733H490.692V62.7422H530.574ZM507.554 117.414H529.826C545.277 117.414 553.967 110.853 553.967 97.2715C553.967 83.6899 545.335 77.8487 529.826 77.8487H507.583L507.554 117.414Z" fill="white"/>
<path fill-rule="evenodd" clip-rule="evenodd" d="M626.16 77.8775V162.733H609.298V77.8775H577.646V62.7422H657.783V77.8775H626.16Z" fill="white"/>
<path fill-rule="evenodd" clip-rule="evenodd" d="M758.667 121.442C758.667 147.569 742.237 163.568 715.247 163.568C688.256 163.568 671.653 147.339 671.653 121.442V62.7422H688.515V121.442C688.515 138.304 698.96 148.432 715.39 148.432C731.821 148.432 741.805 138.448 741.805 121.442V62.7422H758.667V121.442Z" fill="white"/>
<path d="M828.328 132.434C826.89 132.434 825.451 132.434 823.753 132.434H799.928V162.733H783.066V62.7422H823.638C849.219 62.7422 863.922 75.144 863.922 96.8686C863.922 112.867 856.499 124.147 843.205 129.297L865.649 162.733H846.485L828.328 132.434ZM823.753 117.442C839.176 117.442 848.039 110.882 848.039 97.3002C848.039 83.7187 839.176 77.8775 823.753 77.8775H799.928V117.442H823.753Z" fill="white"/>
<path fill-rule="evenodd" clip-rule="evenodd" d="M907.689 78.2803V105.271H956.605V120.435H907.689V148.001H962.705V163.136H890.77V63.0874H962.216V78.2803H907.689Z" fill="white"/>
<path d="M326.676 131.772C337.451 131.772 346.185 123.243 346.185 112.723C346.185 102.203 337.451 93.6746 326.676 93.6746C315.901 93.6746 307.167 102.203 307.167 112.723C307.167 123.243 315.901 131.772 326.676 131.772Z" fill="white"/>
</svg>
